<svg width="31" height="31" viewBox="0 0 31 31" fill="none" xmlns="http://www.w3.org/2000/svg">
<path opacity="0.8" fill-rule="evenodd" clip-rule="evenodd" d="M15.4925 24.2219C20.2432 24.2219 24.0945 20.3707 24.0945 15.6199C24.0945 10.8692 20.2432 7.01794 15.4925 7.01794C10.7417 7.01794 6.8905 10.8692 6.8905 15.6199C6.8905 20.3707 10.7417 24.2219 15.4925 24.2219ZM15.4925 30.7999C23.8762 30.7999 30.6725 24.0036 30.6725 15.6199C30.6725 7.23626 23.8762 0.439941 15.4925 0.439941C7.10882 0.439941 0.3125 7.23626 0.3125 15.6199C0.3125 24.0036 7.10882 30.7999 15.4925 30.7999Z" fill="#0E4DC7"/>
<path opacity="0.6" d="M15.666 15.9525C17.2468 14.3716 19.8098 14.3716 21.3907 15.9525L29.2622 23.824C30.843 25.4048 30.843 27.9679 29.2622 29.5487V29.5487C27.6814 31.1295 25.1183 31.1295 23.5375 29.5487L15.666 21.6772C14.0851 20.0964 14.0851 17.5333 15.666 15.9525V15.9525Z" fill="#0E4DC7"/>
<path d="M17.877 23.8876L22.8762 28.8869C25.2741 27.5495 27.2719 25.5809 28.6447 23.2059L23.6864 18.2476C22.8155 20.9657 20.6294 23.0953 17.877 23.8876Z" fill="#0E4DC7"/>
</svg>
