<svg width="19" height="29" viewBox="0 0 19 29" fill="none" xmlns="http://www.w3.org/2000/svg">
<path d="M18.4198 14.4393L9.24198 27.5888C8.90517 28.0698 8.37206 28.3363 7.81715 28.3363C7.59179 28.3363 7.36158 28.2927 7.14108 28.1994C6.37779 27.8808 5.94766 27.0908 6.09548 26.2778L7.83653 16.6978H2.93561C2.22561 16.6978 1.57017 16.3743 1.13882 15.8097C0.707506 15.2451 0.566939 14.5278 0.753535 13.842L3.92653 2.21084C4.19428 1.22945 5.09086 0.543701 6.1086 0.543701H13.6664C14.3921 0.543701 15.0791 0.895057 15.5032 1.48387C15.926 2.07269 16.0423 2.8348 15.8109 3.52175L13.355 10.882H16.5658C17.4115 10.882 18.1797 11.3472 18.571 12.0984C18.9611 12.8484 18.9032 13.7451 18.4198 14.4393Z" fill="white"/>
</svg>
